HIERARCHY
ROOT Hips
{
	OFFSET 0.00000 0.00000 0.00000
	CHANNELS 6 Xposition Yposition Zposition Zrotation Yrotation Xrotation 
	JOINT LHipJoint
	{
		OFFSET 0 0 0
		CHANNELS 3 Zrotation Yrotation Xrotation
		JOINT LeftUpLeg
		{
			OFFSET 1.57358 -1.76629 0.73362
			CHANNELS 3 Zrotation Yrotation Xrotation
			JOINT LeftLeg
			{
				OFFSET 2.40600 -6.61045 0.00000
				CHANNELS 3 Zrotation Yrotation Xrotation
				JOINT LeftFoot
				{
					OFFSET 2.66168 -7.31291 0.00000
					CHANNELS 3 Zrotation Yrotation Xrotation
					JOINT LeftToeBase
					{
						OFFSET 0.20870 -0.57341 2.12506
						CHANNELS 3 Zrotation Yrotation Xrotation
						End Site
						{
							OFFSET 0.00000 -0.00000 1.10557
						}
					}
				}
			}
		}
	}
	JOINT RHipJoint
	{
		OFFSET 0 0 0
		CHANNELS 3 Zrotation Yrotation Xrotation
		JOINT RightUpLeg
		{
			OFFSET -1.49299 -1.76629 0.73362
			CHANNELS 3 Zrotation Yrotation Xrotation
			JOINT RightLeg
			{
				OFFSET -2.43663 -6.69460 0.00000
				CHANNELS 3 Zrotation Yrotation Xrotation
				JOINT RightFoot
				{
					OFFSET -2.62959 -7.22474 0.00000
					CHANNELS 3 Zrotation Yrotation Xrotation
					JOINT RightToeBase
					{
						OFFSET -0.25784 -0.70841 2.21862
						CHANNELS 3 Zrotation Yrotation Xrotation
						End Site
						{
							OFFSET -0.00000 -0.00000 1.16452
						}
					}
				}
			}
		}
	}
	JOINT LowerBack
	{
		OFFSET 0 0 0
		CHANNELS 3 Zrotation Yrotation Xrotation
		JOINT Spine
		{
			OFFSET -0.00034 2.12399 -0.25450
			CHANNELS 3 Zrotation Yrotation Xrotation
			JOINT Spine1
			{
				OFFSET 0.05594 2.14379 -0.03318
				CHANNELS 3 Zrotation Yrotation Xrotation
				JOINT Neck
				{
					OFFSET 0 0 0
					CHANNELS 3 Zrotation Yrotation Xrotation
					JOINT Neck1
					{
						OFFSET -0.09835 1.62725 0.24211
						CHANNELS 3 Zrotation Yrotation Xrotation
						JOINT Head
						{
							OFFSET 0.10849 1.66041 -0.22648
							CHANNELS 3 Zrotation Yrotation Xrotation
							End Site
							{
								OFFSET 0.04385 1.68267 -0.10541
							}
						}
					}
				}
				JOINT LeftShoulder
				{
					OFFSET 0 0 0
					CHANNELS 3 Zrotation Yrotation Xrotation
					JOINT LeftArm
					{
						OFFSET 3.29108 0.79398 -0.68179
						CHANNELS 3 Zrotation Yrotation Xrotation
						JOINT LeftForeArm
						{
							OFFSET 5.15310 -0.00000 -0.00000
							CHANNELS 3 Zrotation Yrotation Xrotation
							JOINT LeftHand
							{
								OFFSET 3.75138 -0.00000 -0.00000
								CHANNELS 3 Zrotation Yrotation Xrotation
								JOINT LeftFingerBase
								{
									OFFSET 0 0 0
									CHANNELS 3 Zrotation Yrotation Xrotation
									JOINT LeftHandIndex1
									{
										OFFSET 0.52917 -0.00000 0.00000
										CHANNELS 3 Zrotation Yrotation Xrotation
										End Site
										{
											OFFSET 0.42663 -0.00000 0.00000
										}
									}
								}
								JOINT LThumb
								{
									OFFSET 0 0 0
									CHANNELS 3 Zrotation Yrotation Xrotation
									End Site
									{
										OFFSET 0.43315 -0.00000 0.43315
									}
								}
							}
						}
					}
				}
				JOINT RightShoulder
				{
					OFFSET 0 0 0
					CHANNELS 3 Zrotation Yrotation Xrotation
					JOINT RightArm
					{
						OFFSET -3.07414 1.06285 -0.44338
						CHANNELS 3 Zrotation Yrotation Xrotation
						JOINT RightForeArm
						{
							OFFSET -5.29613 -0.00000 0.00000
							CHANNELS 3 Zrotation Yrotation Xrotation
							JOINT RightHand
							{
								OFFSET -3.76144 -0.00000 -0.00000
								CHANNELS 3 Zrotation Yrotation Xrotation
								JOINT RightFingerBase
								{
									OFFSET 0 0 0
									CHANNELS 3 Zrotation Yrotation Xrotation
									JOINT RightHandIndex1
									{
										OFFSET -0.74732 -0.00000 0.00000
										CHANNELS 3 Zrotation Yrotation Xrotation
										End Site
										{
											OFFSET -0.60251 -0.00000 0.00000
										}
									}
								}
								JOINT RThumb
								{
									OFFSET 0 0 0
									CHANNELS 3 Zrotation Yrotation Xrotation
									End Site
									{
										OFFSET -0.61171 -0.00000 0.61171
									}
								}
							}
						}
					}
				}
			}
		}
	}
}
MOTION
Frames: 14
Frame Time: 0.142857
0.00 0.00 0.00 0 0 0 0 0 0 -21 0 0 0 0 0 0 0 0 0 0 0 0 0 0 21 0 0 0 0 0 0 0 0 0 0 0 0 0 0 0 0 0 0 0 0 0 0 -16 0 0 21 0 0 11 0 0 0 -8 0 0 0 0 0 0 0 0 0 0 0 0 0 0 0 0 0 0 0 0 8 0 0 0 0 0 0 0 0 0 0 0 0 0 0 0 0 0
0.00 0.00 0.00 5.7944 5.2538 0.5967 0.0000 0.0000 0.0000 -28.1808 1.2619 14.6734 2.3132 9.4900 27.3404 -0.4450 -11.8775 6.4200 1.0859 -6.6228 -18.6027 0.0000 0.0000 0.0000 12.4462 12.7641 -29.3875 -1.9045 -8.6643 24.7508 -0.0022 -2.2498 1.7329 -0.1222 2.2535 -6.2067 -11.1782 -5.6990 10.3146 5.7395 -8.8134 -4.3502 14.0414 -3.5424 -7.9244 -15.1812 2.2493 -5.0843 1.7134 4.4580 17.3662 3.2947 1.3152 5.7974 -0.0000 -0.0000 0.0000 -91.6118 2.5117 10.1287 23.8453 -35.0002 -7.6176 -0.0000 -0.0000 1.1213 19.1939 25.6144 8.5585 -7.1250 0.0000 -0.0000 -11.5657 56.5188 -3.2969 -0.0000 -0.0000 0.0000 79.3574 -22.1490 12.0396 -9.7148 16.2922 -1.3939 0.0000 0.0000 18.1257 -14.2974 13.2253 -3.3368 7.1250 -0.0000 -0.0000 8.9750 -16.4541 6.1419
0.00 0.00 0.00 3.7367 5.3554 -0.5443 0.0000 0.0000 0.0000 -25.0962 -0.4682 9.4411 4.4584 12.7467 38.4274 0.8835 -9.4737 23.5845 0.5291 -4.6614 -12.9453 0.0000 0.0000 0.0000 16.2569 12.6321 -26.6756 -2.5357 -9.9026 28.6618 -0.0071 -1.7690 1.8210 -0.0809 -1.8351 5.0502 -7.3277 -6.0019 9.6460 5.3412 -8.6404 -4.7547 11.3029 -3.6110 -8.6062 -16.0006 3.0596 -0.5062 3.1455 4.5025 15.5537 3.7394 1.4825 4.3889 -0.0000 0.0000 0.0000 -91.2673 4.9996 8.2838 23.7495 -34.8982 -7.5628 -0.0000 0.0000 -1.3181 18.1163 30.5105 9.4308 -7.1250 0.0000 -0.0000 -15.6794 61.0978 -6.2356 -0.0000 0.0000 0.0000 80.4928 -23.7028 10.2894 -9.5599 16.0482 -1.3507 0.0000 0.0000 20.2004 -14.2815 10.3493 -2.6183 7.1250 -0.0000 -0.0000 9.0298 -19.3765 5.5919
0.00 0.00 0.00 0.1215 4.1006 -1.5581 0.0000 0.0000 0.0000 -20.1412 -2.7136 -1.9992 9.1037 16.8740 56.4479 1.3666 -7.5970 26.0079 0.0701 -1.7087 -4.7011 0.0000 0.0000 0.0000 22.6104 13.2505 -19.6387 -2.6719 -10.1440 29.4442 0.0061 -2.7159 -3.4721 -0.0125 -0.7213 1.9822 -3.3638 -4.4492 9.4333 5.5207 -5.9701 -3.3958 8.7709 -2.5921 -7.9693 -14.4329 1.2045 -3.1399 3.2394 2.3938 17.3876 3.5330 0.4680 5.6053 0.0000 -0.0000 0.0000 -90.7375 3.1455 11.1974 22.2919 -33.3053 -6.7454 -0.0000 0.0000 -0.6896 17.8011 28.0373 8.5826 -7.1250 0.0000 -0.0000 -14.3731 58.6182 -4.8498 0.0000 -0.0000 0.0000 82.4948 -20.5817 12.1375 -10.7051 17.8348 -1.6845 0.0000 0.0000 15.1473 -15.7688 10.0891 -2.8320 7.1250 -0.0000 -0.0000 7.9821 -19.5567 4.8971
0.00 0.00 0.00 -1.4935 2.0788 -1.5161 0.0000 0.0000 0.0000 -17.5282 -2.9241 -13.9225 12.1066 18.4354 66.3264 0.1365 -2.0898 8.0771 0.2003 -2.8820 -7.9503 0.0000 0.0000 0.0000 26.2253 11.8888 -12.7074 -2.2352 -9.3398 26.8640 -0.1004 -1.6952 -6.8629 -0.0125 -0.7208 1.9809 0.5826 -1.0876 8.0878 3.5013 -1.2371 0.1783 3.4587 -0.5903 -4.2891 -9.3377 -2.6187 -14.3728 3.4123 -2.1599 19.5843 2.4502 -1.3601 8.6356 0.0000 0.0000 0.0000 -87.2284 -4.2722 20.2695 19.3571 -29.8600 -5.2075 -0.0000 -0.0000 1.5782 18.4523 28.5148 9.0505 -7.1250 0.0000 -0.0000 -13.9692 59.2341 -4.9171 0.0000 0.0000 0.0000 88.1042 -10.1104 5.2075 -11.4422 18.9629 -1.9172 0.0000 0.0000 16.4124 -17.1274 14.6691 -4.4622 7.1250 -0.0000 -0.0000 7.0525 -14.7419 5.0649
0.00 0.00 0.00 -3.1166 -1.3439 -1.2094 0.0000 0.0000 0.0000 -14.9431 -5.1101 -28.3609 10.6139 17.7409 61.5213 0.0885 1.7766 -6.5682 0.0009 -0.1895 -0.5207 0.0000 0.0000 0.0000 30.1590 10.0191 -3.1319 -2.0518 -8.9732 25.7115 -0.5836 -0.6100 -14.6661 -0.0020 -0.2882 0.7919 2.0793 -0.1022 7.6869 3.7546 0.2090 0.1360 2.7072 0.0984 -4.1826 -8.6149 -2.5651 -14.5767 3.4093 -2.2448 20.1693 2.3243 -1.3557 8.8654 -0.0000 -0.0000 0.0000 -88.2304 0.7444 24.1492 17.5633 -27.5944 -4.3451 -0.0000 -0.0000 1.8435 14.1439 29.6243 7.1005 -7.1250 0.0000 -0.0000 -19.3039 59.3151 -6.9090 -0.0000 -0.0000 0.0000 85.2505 -1.7221 12.2208 -14.1039 22.8831 -2.8684 0.0000 0.0000 9.2870 -15.8970 9.7810 -2.7700 7.1250 -0.0000 -0.0000 7.8961 -19.8656 4.7883
0.00 0.00 0.00 -5.1623 -3.4825 -0.7347 0.0000 0.0000 0.0000 -11.7664 -7.2675 -33.0460 6.4464 14.8474 46.7482 0.1974 5.0156 -11.7341 0.0011 -0.2099 -0.5767 0.0000 0.0000 0.0000 32.8242 7.8383 3.9809 -1.5766 -7.9221 22.4776 -0.8630 0.0754 -17.5370 -0.0015 -0.2506 0.6886 4.7061 0.2472 8.2361 4.1001 0.9841 -0.1939 1.5078 0.4205 -4.8278 -8.4284 -2.5904 -14.6175 3.2118 -2.2743 19.7601 2.2183 -1.3692 8.7303 0.0000 0.0000 0.0000 -89.1080 4.3390 25.2500 15.9503 -25.4531 -3.6246 -0.0000 -0.0000 6.5567 13.5895 25.7605 5.9974 -7.1250 0.0000 -0.0000 -17.3973 55.5257 -4.5953 0.0000 0.0000 0.0000 83.4152 3.2240 17.0887 -17.3879 27.3663 -4.2641 0.0000 0.0000 4.8117 -15.7424 10.3809 -2.9077 7.1250 -0.0000 -0.0000 7.9966 -19.2590 4.9598
0.00 0.00 0.00 -5.5491 -6.1210 0.1391 0.0000 0.0000 0.0000 -8.3320 -12.7227 -31.8125 2.6487 10.1033 29.3120 -0.2435 10.7219 -10.6007 0.0111 -0.6811 -1.8716 0.0000 0.0000 0.0000 32.6039 4.7848 11.3761 -0.8466 -5.8686 16.4035 -0.8963 1.0085 -17.5805 -0.0106 0.6655 -1.8288 5.4468 1.1268 7.8938 3.9763 2.1969 -0.3153 0.8249 0.9996 -4.7205 -8.3802 -2.5625 -15.3390 3.7229 -2.2932 19.6714 2.3789 -1.3130 8.8348 -0.0000 0.0000 0.0000 -90.8523 6.4357 21.5598 14.9200 -24.0346 -3.1933 -0.0000 -0.0000 10.1426 13.2576 27.6574 6.2414 -7.1250 0.0000 -0.0000 -18.8796 57.2650 -5.8118 -0.0000 0.0000 0.0000 82.0049 6.9433 19.6953 -20.1830 30.8622 -5.6249 0.0000 0.0000 1.3766 -16.1309 11.4807 -3.2946 7.1250 -0.0000 -0.0000 7.7131 -18.1047 4.9797
0.00 0.00 0.00 -3.6408 -7.7291 -0.8453 0.0000 0.0000 0.0000 -11.5511 -10.5817 -29.1498 1.8975 8.6491 24.7038 0.0977 0.6055 -6.1580 0.5281 -4.6568 -12.9323 0.0000 0.0000 0.0000 27.4529 0.6784 18.8352 -2.0463 -8.9619 25.6761 -0.0304 6.4354 -5.2589 -0.2148 2.9835 -8.2328 4.1762 1.7247 6.1708 3.1874 2.7204 -0.2672 0.7048 1.2989 -3.7017 -9.0970 -3.2471 -15.8488 4.6692 -3.2719 21.4278 2.7176 -1.7451 9.6334 0.0000 0.0000 0.0000 -93.8838 8.3404 10.0577 10.6320 -17.7220 -1.6622 -0.0000 -0.0000 13.3710 13.7853 27.1211 6.3819 -7.1250 0.0000 -0.0000 -18.0017 56.8661 -5.3540 0.0000 0.0000 0.0000 81.7737 9.4937 16.6243 -21.6837 32.6177 -6.4145 0.0000 -0.0000 -0.2657 -18.1238 11.0915 -3.6030 7.1250 -0.0000 -0.0000 6.3141 -18.3654 4.0276
0.00 0.00 0.00 -0.8060 -6.3803 -2.3899 0.0000 0.0000 0.0000 -16.2396 -8.7037 -27.1378 2.6766 10.1521 29.4706 -0.0109 -4.8540 -3.0086 0.5548 -4.7713 -13.2574 0.0000 0.0000 0.0000 24.6886 2.0840 13.3412 -4.9693 -13.3491 40.6897 -0.3608 2.2237 12.3805 -0.0257 -1.0348 2.8446 1.2997 1.7560 6.7244 2.3054 2.5443 -0.4792 1.3939 1.2579 -4.3173 -9.4755 -3.8071 -15.1313 5.3980 -4.2230 21.8683 2.9219 -2.1522 9.7527 -0.0000 -0.0000 0.0000 -93.4350 7.9373 7.4625 9.2928 -15.6258 -1.2778 -0.0000 -0.0000 18.2367 13.8382 25.9470 6.1516 -7.1250 0.0000 -0.0000 -17.2524 55.7539 -4.6520 -0.0000 -0.0000 0.0000 82.7776 6.6062 13.9578 -20.9820 31.8073 -6.0404 0.0000 -0.0000 -0.4540 -17.6725 11.5919 -3.6632 7.1250 -0.0000 -0.0000 6.6342 -17.8788 4.3061
0.00 0.00 0.00 0.3075 -7.0478 -3.5498 0.0000 0.0000 0.0000 -18.9111 -5.8543 -23.8558 3.3145 11.1875 32.9150 0.0808 -6.2600 -6.2794 0.2252 -3.0546 -8.4308 0.0000 0.0000 0.0000 23.7483 5.7925 5.2519 -9.4844 -17.1095 57.7508 -0.6778 -0.6701 15.3410 -0.0001 0.0530 -0.1456 0.3592 1.7305 7.3356 2.0189 2.4170 0.1558 1.6289 1.2105 -4.0250 -9.5740 -3.6124 -15.5634 5.4037 -3.8558 21.0637 2.9754 -1.9732 9.5217 0.0000 0.0000 0.0000 -93.5393 7.4907 7.4202 10.4026 -17.3669 -1.5930 -0.0000 -0.0000 15.8760 12.5558 27.7400 5.9185 -7.1250 0.0000 -0.0000 -19.6502 57.1954 -6.0280 0.0000 0.0000 0.0000 83.7296 5.4552 13.1305 -19.4336 29.9540 -5.2456 0.0000 0.0000 0.9207 -17.1395 11.4524 -3.5040 7.1250 -0.0000 -0.0000 7.0068 -18.0626 4.5230
0.00 0.00 0.00 4.5817 -4.4364 -4.2406 0.0000 0.0000 0.0000 -26.2808 -6.2600 -15.6929 3.2511 11.0909 32.5871 0.3097 -4.0779 -9.9030 0.0003 -0.1089 -0.2993 0.0000 0.0000 0.0000 17.4139 6.5554 -11.5977 -14.3517 -19.2172 73.2756 0.0102 -1.8217 -1.0300 -0.1209 -2.2419 6.1748 -3.3403 0.1287 7.6780 0.7761 -0.0921 0.1077 2.6954 0.0292 -4.1916 -9.9115 -2.9154 -14.4779 4.8077 -2.7703 21.0082 2.9686 -1.5741 9.2100 0.0000 -0.0000 0.0000 -91.9201 5.8504 12.2338 10.9171 -18.1611 -1.7500 -0.0000 -0.0000 10.8281 14.4005 27.6879 6.8037 -7.1250 0.0000 -0.0000 -17.7234 57.5363 -5.5571 0.0000 -0.0000 0.0000 86.1558 3.6397 11.2459 -16.4727 26.1573 -3.8520 0.0000 0.0000 8.5954 -15.0455 11.5325 -3.0761 7.1250 -0.0000 -0.0000 8.4718 -18.1249 5.4762
0.00 0.00 0.00 7.4219 -4.4812 -3.6897 0.0000 0.0000 0.0000 -31.9667 -4.0363 -3.9833 2.9417 10.6001 30.9426 1.1334 -2.0748 -19.5409 0.0106 -0.6650 -1.8274 0.0000 0.0000 0.0000 11.7528 10.0880 -31.1031 -10.1272 -17.4808 59.9127 -0.4069 -1.9141 -12.9001 -0.0595 1.5736 -4.3288 -5.6305 -0.4802 7.4501 0.7082 -1.0964 0.0772 4.0232 -0.4289 -3.9851 -10.0254 -2.3151 -15.1723 3.3787 -1.5009 22.5738 2.6657 -1.1796 9.7873 -0.0000 -0.0000 0.0000 -89.7179 -0.0758 17.1860 13.1973 -21.5756 -2.5254 -0.0000 -0.0000 12.1931 14.0542 25.9904 6.2604 -7.1250 0.0000 -0.0000 -17.0586 55.8387 -4.6330 -0.0000 -0.0000 0.0000 87.2762 -4.8980 11.9424 -16.0400 25.5749 -3.6632 0.0000 0.0000 6.7865 -14.2487 12.0784 -3.0417 7.1250 -0.0000 -0.0000 9.0202 -17.6218 5.9406
0.00 0.00 0.00 8.7140 -3.5177 -2.7586 0.0000 0.0000 0.0000 -33.7852 -1.7007 2.3221 1.9557 8.7732 25.0885 1.2093 -1.9296 -20.2393 0.0048 -0.4457 -1.2248 0.0000 0.0000 0.0000 9.2070 11.4661 -33.0492 -5.6670 -14.0977 43.6302 -0.2458 -4.0898 -11.7830 -0.0028 0.3418 -0.9392 -7.1007 -0.9724 7.0466 0.5665 -1.8567 -0.0339 4.7706 -0.7852 -3.7513 -9.4852 -2.2153 -16.1433 3.0318 -1.3087 22.5699 2.4766 -1.0779 9.9469 0.0000 0.0000 0.0000 -88.4244 -1.7723 19.8887 15.3139 -24.5815 -3.3554 -0.0000 -0.0000 7.9617 20.1013 17.8025 6.3844 -7.1250 0.0000 -0.0000 -7.7263 48.7034 -0.7096 0.0000 0.0000 0.0000 87.8364 -7.5343 10.9368 -15.2641 24.5127 -3.3347 0.0000 0.0000 8.9882 -14.6990 16.4485 -4.2480 7.1250 -0.0000 -0.0000 8.7175 -13.1495 6.5841
